<?xml version="1.0" encoding="UTF-8"?>
<svg version="1.1" xmlns="http://www.w3.org/2000/svg" width="1024" height="1024">
<path d="M0 0 C4.15540079 3.00811842 7.28880846 6.56550345 10.3203125 10.6796875 C10.77664063 11.28425781 11.23296875 11.88882813 11.703125 12.51171875 C16.03899145 19.47032959 15.16765963 28.5426455 13.8828125 36.33203125 C11.60730708 44.4242974 6.35871303 50.7803443 -0.6796875 55.2421875 C-7.46401444 58.64846538 -14.28514855 58.37429936 -21.6796875 57.6796875 C-22.40671875 57.43476563 -23.13375 57.18984375 -23.8828125 56.9375 C-25.8204122 56.44695324 -25.8204122 56.44695324 -27.57421875 58.05078125 C-28.20714844 58.73269531 -28.84007812 59.41460937 -29.4921875 60.1171875 C-30.11738281 60.77589844 -30.74257813 61.43460937 -31.38671875 62.11328125 C-33.26531688 64.21590301 -35.12194723 66.3338983 -36.97265625 68.4609375 C-40.61961797 72.64010317 -44.37922084 76.70272243 -48.1796875 80.7421875 C-48.80488281 81.41056641 -49.43007813 82.07894531 -50.07421875 82.76757812 C-53.71341039 86.64410836 -57.41173222 90.44462433 -61.20458984 94.17114258 C-63.19825581 96.21001415 -64.91388946 98.44300998 -66.6796875 100.6796875 C-68.3256526 102.36680173 -69.99205899 104.0342497 -71.6796875 105.6796875 C-72.4428125 106.4428125 -73.2059375 107.2059375 -73.9921875 107.9921875 C-74.5490625 108.5490625 -75.1059375 109.1059375 -75.6796875 109.6796875 C-74.1986732 113.0637668 -72.25090582 115.42160003 -69.7421875 118.1171875 C-66.91355485 121.1573067 -64.77695352 124.10384893 -62.6796875 127.6796875 C-61.03338425 130.10513018 -59.3266017 132.48595112 -57.6171875 134.8671875 C-57.17052734 135.49560547 -56.72386719 136.12402344 -56.26367188 136.77148438 C-54.50941676 139.223246 -52.81529224 141.54408276 -50.6796875 143.6796875 C-48.6796875 145.6796875 -48.6796875 145.6796875 -48.6796875 148.6796875 C-48.0196875 148.6796875 -47.3596875 148.6796875 -46.6796875 148.6796875 C-45.58569336 150.10644531 -45.58569336 150.10644531 -44.39453125 152.1328125 C-43.72901245 153.26360229 -43.72901245 153.26360229 -43.05004883 154.41723633 C-42.57720459 155.24634521 -42.10436035 156.0754541 -41.6171875 156.9296875 C-41.12694092 157.78651123 -40.63669434 158.64333496 -40.1315918 159.52612305 C-35.00829197 168.64279059 -30.64240192 178.00697806 -26.6796875 187.6796875 C-26.16776855 188.92878906 -26.16776855 188.92878906 -25.64550781 190.203125 C-20.96598928 201.84594622 -17.43042561 213.72913599 -14.3046875 225.8671875 C-14.13524628 226.5244986 -13.96580505 227.18180969 -13.79122925 227.85903931 C-11.98904199 234.90439442 -10.34076812 241.92868649 -9.18505859 249.1105957 C-8.69404138 251.82449315 -8.69404138 251.82449315 -7.69311523 254.97729492 C-6.59851963 258.97622106 -6.00646033 262.81746094 -5.56640625 266.9296875 C-5.48210861 267.70763672 -5.39781097 268.48558594 -5.31095886 269.28710938 C-4.51344727 277.29035918 -4.41014539 285.2595881 -4.47387695 293.29638672 C-4.49239589 295.70681166 -4.49438367 298.1168542 -4.49414062 300.52734375 C-4.54348014 322.54348014 -4.54348014 322.54348014 -6.6796875 324.6796875 C-6.96878713 327.84601682 -7.12848365 331.01282512 -7.30078125 334.1875 C-7.70351966 337.89933652 -8.60978122 341.10230326 -9.6796875 344.6796875 C-10.1229696 346.49344292 -10.55413772 348.31018003 -10.9765625 350.12890625 C-18.20275145 381.20926196 -27.34585953 415.5835582 -46.6796875 441.6796875 C-47.3396875 441.6796875 -47.9996875 441.6796875 -48.6796875 441.6796875 C-48.6796875 442.6696875 -48.6796875 443.6596875 -48.6796875 444.6796875 C-49.3396875 445.3396875 -49.9996875 445.9996875 -50.6796875 446.6796875 C-52.02263231 448.33861932 -53.35713438 450.00445355 -54.6796875 451.6796875 C-52.19410624 456.35894902 -48.88274581 459.8367214 -45.2421875 463.6171875 C-39.7820905 469.34864689 -34.55583544 475.20958048 -29.58813477 481.37475586 C-27.05437696 484.46312738 -27.05437696 484.46312738 -23.7265625 486.57421875 C-20.98783968 486.71533615 -18.29430182 486.61431489 -15.5546875 486.4921875 C-6.84781913 486.44338218 0.30308264 488.84246998 6.71875 494.84765625 C13.50560545 502.61115676 15.63421381 509.55437048 15.0703125 519.7421875 C14.14222542 528.75469576 9.95875441 534.63847566 3.3203125 540.6796875 C-6.96879035 546.85314921 -16.54913613 546.46232534 -27.8828125 543.62890625 C-33.28585693 541.79519145 -36.38329991 539.22339687 -39.8671875 534.7421875 C-40.54136719 533.88753906 -41.21554687 533.03289063 -41.91015625 532.15234375 C-44.53801229 528.4803065 -45.9353658 525.86855721 -45.91015625 521.30859375 C-45.90822266 520.48681641 -45.90628906 519.66503906 -45.90429688 518.81835938 C-45.89205078 517.96822266 -45.87980469 517.11808594 -45.8671875 516.2421875 C-45.86654297 515.39591797 -45.86589844 514.54964844 -45.86523438 513.67773438 C-45.81926014 507.15450161 -45.81926014 507.15450161 -44.86328125 503.90234375 C-44.40453936 501.43874582 -44.40453936 501.43874582 -46.671875 499.171875 C-47.62320313 498.30820312 -48.57453125 497.44453125 -49.5546875 496.5546875 C-50.579668 495.59555862 -51.60042654 494.63190049 -52.6171875 493.6640625 C-53.390625 492.92833008 -53.390625 492.92833008 -54.1796875 492.17773438 C-57.27296469 489.08848489 -59.9139181 485.62087666 -62.609375 482.1875 C-64.81843844 479.51161561 -67.19291925 477.09713817 -69.6796875 474.6796875 C-73.69364529 476.23859669 -76.05115225 479.07356122 -78.8046875 482.2421875 C-83.76321361 487.80088586 -89.0246731 492.82291493 -94.6796875 497.6796875 C-95.72382812 498.57880859 -95.72382812 498.57880859 -96.7890625 499.49609375 C-98.41765541 500.89251122 -100.04846059 502.28634785 -101.6796875 503.6796875 C-102.3396875 504.3396875 -102.9996875 504.9996875 -103.6796875 505.6796875 C-114.19007676 515.02225573 -125.61577975 524.43096974 -138.3671875 530.5078125 C-141.27812888 531.98295171 -144.05605038 533.64717741 -146.8671875 535.3046875 C-176.77944315 552.53763326 -209.54187617 562.27037913 -243.6796875 566.6796875 C-244.75162354 566.82325684 -244.75162354 566.82325684 -245.84521484 566.96972656 C-267.98701307 569.58014774 -291.80182172 568.64808134 -313.6796875 564.6796875 C-314.78183594 564.48101074 -315.88398438 564.28233398 -317.01953125 564.07763672 C-339.27309277 559.93765558 -360.3861003 553.73688469 -380.6796875 543.6796875 C-381.98150966 543.09900194 -383.28632519 542.5249899 -384.59375 541.95703125 C-402.57148099 534.0522178 -419.23530722 522.78139069 -434.8046875 510.8671875 C-435.54976563 510.30386719 -436.29484375 509.74054687 -437.0625 509.16015625 C-437.59617187 508.67160156 -438.12984375 508.18304687 -438.6796875 507.6796875 C-438.6796875 507.0196875 -438.6796875 506.3596875 -438.6796875 505.6796875 C-439.6696875 505.6796875 -440.6596875 505.6796875 -441.6796875 505.6796875 C-443.00390625 504.39453125 -443.00390625 504.39453125 -444.3671875 502.6171875 C-446.54048383 499.94850745 -448.74015819 497.65297255 -451.3671875 495.4296875 C-457.88766684 489.87474067 -464.27503818 483.77911173 -469.6796875 477.1171875 C-471.62362198 474.50662313 -471.62362198 474.50662313 -474.6796875 472.6796875 C-475.1334375 473.1746875 -475.5871875 473.6696875 -476.0546875 474.1796875 C-477.6796875 475.6796875 -477.6796875 475.6796875 -479.6796875 475.6796875 C-479.9271875 476.2984375 -480.1746875 476.9171875 -480.4296875 477.5546875 C-481.91709119 480.08327377 -483.11646759 480.39807754 -485.6796875 481.6796875 C-486.36455475 483.00376419 -487.02838953 484.33877991 -487.6796875 485.6796875 C-489.30308555 487.38852755 -490.97287803 489.05415467 -492.6796875 490.6796875 C-493.4015625 491.4428125 -494.1234375 492.2059375 -494.8671875 492.9921875 C-496.6796875 494.6796875 -496.6796875 494.6796875 -498.6796875 494.6796875 C-498.9684375 495.2984375 -499.2571875 495.9171875 -499.5546875 496.5546875 C-500.6796875 498.6796875 -500.6796875 498.6796875 -502.6796875 500.6796875 C-502.72099675 503.53592723 -502.66688193 506.32960553 -502.5546875 509.1796875 C-502.3935729 518.89835055 -503.62709392 525.68228974 -510.3671875 533.0546875 C-517.95963987 539.92404917 -524.8060019 541.43171259 -535.01953125 541.125 C-542.79082415 540.17950652 -548.97810434 536.44080295 -554.20703125 530.66796875 C-560.25354175 522.50437765 -560.70303859 513.56142149 -559.6796875 503.6796875 C-557.8197478 495.04259252 -552.84127226 489.26243457 -545.6875 484.296875 C-538.865717 480.61568644 -531.20808535 481.14507485 -523.6796875 481.6796875 C-522.95652344 481.93234375 -522.23335937 482.185 -521.48828125 482.4453125 C-520.59302734 482.56132813 -520.59302734 482.56132813 -519.6796875 482.6796875 C-517.50424115 481.03613649 -517.50424115 481.03613649 -515.5546875 478.7421875 C-514.29584185 477.35745728 -513.01015311 475.99575414 -511.6796875 474.6796875 C-511.0196875 474.6796875 -510.3596875 474.6796875 -509.6796875 474.6796875 C-509.43492676 474.10895508 -509.19016602 473.53822266 -508.93798828 472.95019531 C-507.4594928 470.28236296 -505.71842202 468.49252435 -503.546875 466.3515625 C-502.74121094 465.55234375 -501.93554688 464.753125 -501.10546875 463.9296875 C-499.84283203 462.6921875 -499.84283203 462.6921875 -498.5546875 461.4296875 C-497.70519531 460.58921875 -496.85570312 459.74875 -495.98046875 458.8828125 C-493.88463827 456.81053067 -491.78428037 454.74306357 -489.6796875 452.6796875 C-492.2920041 447.99251657 -495.07649901 443.46852599 -497.99511719 438.96655273 C-511.6796875 417.80345472 -511.6796875 417.80345472 -511.6796875 411.6796875 C-512.3396875 411.3496875 -512.9996875 411.0196875 -513.6796875 410.6796875 C-528.11084156 384.55170331 -534.01328605 352.97181169 -537.6796875 323.6796875 C-537.7820874 322.90230225 -537.8844873 322.12491699 -537.98999023 321.32397461 C-541.93870062 287.72268435 -537.62081865 253.08989261 -528.6796875 220.6796875 C-528.42928711 219.76590332 -528.17888672 218.85211914 -527.92089844 217.91064453 C-524.85132322 206.86297518 -521.18769269 196.22362121 -516.6796875 185.6796875 C-516.26275635 184.70443115 -516.26275635 184.70443115 -515.83740234 183.70947266 C-515.11966686 182.03223372 -514.39987461 180.3558752 -513.6796875 178.6796875 C-513.0196875 178.6796875 -512.3596875 178.6796875 -511.6796875 178.6796875 C-511.3703125 177.5246875 -511.0609375 176.3696875 -510.7421875 175.1796875 C-506.7136859 163.11318508 -498.85885861 152.04194599 -491.6796875 141.6796875 C-490.92768367 140.57599864 -490.17640352 139.47181643 -489.42578125 138.3671875 C-485.48523486 132.59472044 -481.45568523 126.96509216 -476.9921875 121.58203125 C-475.502705 119.42316822 -474.84618163 118.30753946 -474.6796875 115.6796875 C-476.49583674 113.18314918 -476.49583674 113.18314918 -479.1484375 110.7578125 C-479.62156372 110.29413269 -480.09468994 109.83045288 -480.58215332 109.35272217 C-482.10333207 107.86616955 -483.64051644 106.3975828 -485.1796875 104.9296875 C-487.17393324 103.00217328 -489.1616202 101.0679794 -491.1484375 99.1328125 C-491.63301422 98.66305496 -492.11759094 98.19329742 -492.61685181 97.70930481 C-495.98643158 94.42210917 -499.12287704 91.0044805 -502.17285156 87.42236328 C-504.42912982 84.8129475 -506.8494005 82.4156336 -509.3046875 79.9921875 C-510.20445312 79.10144531 -511.10421875 78.21070313 -512.03125 77.29296875 C-513.8442317 75.50405318 -515.67325084 73.73128613 -517.515625 71.97265625 C-519.6796875 69.6796875 -519.6796875 69.6796875 -519.6796875 67.6796875 C-520.2365625 67.83953125 -520.7934375 67.999375 -521.3671875 68.1640625 C-529.62286889 70.00485632 -538.93319392 68.93919745 -546.6796875 65.6796875 C-552.86509679 61.49368837 -558.88295067 56.15092863 -560.6796875 48.6796875 C-561.11848211 45.83192514 -561.39799783 42.98970964 -561.6171875 40.1171875 C-561.67527588 39.39660156 -561.73336426 38.67601562 -561.79321289 37.93359375 C-562.20412331 29.28368189 -558.12511704 23.06061391 -552.6796875 16.6796875 C-547.31030365 11.31030365 -540.80849482 8.58192966 -533.23828125 8.546875 C-531.63480964 8.59475202 -530.031767 8.66000048 -528.4296875 8.7421875 C-527.66116455 8.77981201 -526.8926416 8.81743652 -526.10083008 8.85620117 C-516.90060379 9.55622924 -510.95867426 14.18583047 -504.6796875 20.6796875 C-500.26361123 26.66431545 -499.54021143 31.81401235 -499.5546875 39.1171875 C-499.55082031 41.06431641 -499.55082031 41.06431641 -499.546875 43.05078125 C-499.6796875 46.6796875 -499.6796875 46.6796875 -500.38525391 49.17480469 C-500.95350826 51.70473236 -500.95350826 51.70473236 -499.43554688 53.58911133 C-498.80455078 54.18232178 -498.17355469 54.77553223 -497.5234375 55.38671875 C-496.82992187 56.05638672 -496.13640625 56.72605469 -495.421875 57.41601562 C-494.68195313 58.10115234 -493.94203125 58.78628906 -493.1796875 59.4921875 C-491.75013109 60.85026609 -490.32303354 62.21093774 -488.8984375 63.57421875 C-488.18993652 64.25009033 -487.48143555 64.92596191 -486.75146484 65.62231445 C-484.11671255 68.2387483 -481.7067642 71.01107619 -479.29199219 73.8293457 C-476.9923347 76.46851955 -474.54631029 78.90787683 -472.0546875 81.3671875 C-471.15492188 82.25792969 -470.25515625 83.14867187 -469.328125 84.06640625 C-468.45414062 84.92878906 -467.58015625 85.79117188 -466.6796875 86.6796875 C-463.10384442 90.20827274 -459.84646377 93.78907666 -456.6796875 97.6796875 C-453.02088009 96.1104088 -450.42441122 93.8477079 -447.4921875 91.1796875 C-446.61175781 90.385625 -445.73132813 89.5915625 -444.82421875 88.7734375 C-442.63641915 86.86612661 -442.63641915 86.86612661 -441.6796875 84.6796875 C-440.6896875 84.6796875 -439.6996875 84.6796875 -438.6796875 84.6796875 C-438.4321875 84.0815625 -438.1846875 83.4834375 -437.9296875 82.8671875 C-436.46350595 80.30136978 -435.13248938 79.31488875 -432.6796875 77.6796875 C-431.78636719 77.07898438 -430.89304687 76.47828125 -429.97265625 75.859375 C-428.88597656 75.14007813 -427.79929687 74.42078125 -426.6796875 73.6796875 C-425.30002021 72.74591513 -423.92116963 71.81093537 -422.54296875 70.875 C-383.83268103 44.6796875 -383.83268103 44.6796875 -373.6796875 44.6796875 C-373.6796875 44.0196875 -373.6796875 43.3596875 -373.6796875 42.6796875 C-372.7721875 42.4528125 -371.8646875 42.2259375 -370.9296875 41.9921875 C-367.59869276 41.05182716 -364.53092064 39.76644639 -361.3671875 38.3671875 C-321.68680626 21.62088799 -272.8444914 17.90090348 -230.6796875 25.6796875 C-229.71740234 25.85129395 -228.75511719 26.02290039 -227.76367188 26.19970703 C-196.30581293 31.91792408 -168.09437036 42.75659087 -140.49023438 58.64648438 C-138.86038779 59.57656943 -137.21614879 60.48132428 -135.5703125 61.3828125 C-129.46566836 64.78161437 -123.83407852 68.63171978 -118.2421875 72.8046875 C-117.56736328 73.30782471 -116.89253906 73.81096191 -116.19726562 74.3293457 C-113.22263743 76.59046511 -110.53532474 78.82506262 -107.89453125 81.484375 C-105.79843799 83.88635295 -105.79843799 83.88635295 -102.6796875 84.6796875 C-101.05964517 86.40098247 -99.64092964 88.22894228 -98.1796875 90.0859375 C-96.66451913 91.94813241 -96.66451913 91.94813241 -93.6796875 92.6796875 C-93.0609375 91.8546875 -92.4421875 91.0296875 -91.8046875 90.1796875 C-91.1034375 89.3546875 -90.4021875 88.5296875 -89.6796875 87.6796875 C-89.0196875 87.6796875 -88.3596875 87.6796875 -87.6796875 87.6796875 C-87.4528125 87.1434375 -87.2259375 86.6071875 -86.9921875 86.0546875 C-85.22398661 82.85508589 -83.14298547 80.38931527 -80.6796875 77.6796875 C-80.0196875 77.6796875 -79.3596875 77.6796875 -78.6796875 77.6796875 C-78.6796875 77.0196875 -78.6796875 76.3596875 -78.6796875 75.6796875 C-77.06121575 73.96618093 -75.3850842 72.30670245 -73.6796875 70.6796875 C-68.41769169 65.4938299 -63.26846242 60.3061207 -58.46875 54.6875 C-55.71826888 51.60071551 -52.75727383 48.7355307 -49.79296875 45.85546875 C-48.74689453 44.77845703 -48.74689453 44.77845703 -47.6796875 43.6796875 C-46.92042969 42.94492188 -46.16117188 42.21015625 -45.37890625 41.453125 C-42.94172414 37.47519558 -43.62377793 34.49076446 -44.1796875 29.9921875 C-45.02488545 20.33250544 -43.60469522 14.12324006 -37.5546875 6.3671875 C-28.03806185 -3.78662042 -12.20487862 -6.94618494 0 0 Z M-297.51171875 61.7734375 C-298.80400391 61.99902344 -300.09628906 62.22460938 -301.42773438 62.45703125 C-302.78256836 62.6978251 -304.13738587 62.93871168 -305.4921875 63.1796875 C-306.86646858 63.42095989 -308.24081694 63.66184933 -309.61523438 63.90234375 C-312.9707332 64.49102775 -316.32549517 65.08361211 -319.6796875 65.6796875 C-319.6796875 66.3396875 -319.6796875 66.9996875 -319.6796875 67.6796875 C-321.6596875 67.1846875 -321.6596875 67.1846875 -323.6796875 66.6796875 C-323.6796875 67.3396875 -323.6796875 67.9996875 -323.6796875 68.6796875 C-325.6596875 68.1846875 -325.6596875 68.1846875 -327.6796875 67.6796875 C-327.6796875 68.3396875 -327.6796875 68.9996875 -327.6796875 69.6796875 C-329.6596875 69.1846875 -329.6596875 69.1846875 -331.6796875 68.6796875 C-331.6796875 69.3396875 -331.6796875 69.9996875 -331.6796875 70.6796875 C-332.26596924 70.77620605 -332.85225098 70.87272461 -333.45629883 70.97216797 C-340.39269162 72.22344948 -346.78910738 74.29950756 -353.3671875 76.8046875 C-354.95092163 77.40627686 -354.95092163 77.40627686 -356.56665039 78.02001953 C-377.27417566 86.05208694 -398.26781731 98.59850949 -414.6796875 113.6796875 C-414.6796875 114.3396875 -414.6796875 114.9996875 -414.6796875 115.6796875 C-415.6696875 115.6796875 -416.6596875 115.6796875 -417.6796875 115.6796875 C-418.90343143 117.10187639 -420.12033839 118.53167386 -421.2734375 120.01171875 C-423.46258773 122.60829416 -426.02016996 124.57681316 -428.6796875 126.6796875 C-424.31913895 131.84101579 -419.81213562 136.82430571 -415.1796875 141.7421875 C-414.22255859 142.7640918 -414.22255859 142.7640918 -413.24609375 143.80664062 C-411.99198587 145.1415346 -410.73173695 146.47069094 -409.46484375 147.79345703 C-408.30237265 149.02174638 -407.16269656 150.27215043 -406.05078125 151.54638672 C-404.39309288 153.4545028 -404.39309288 153.4545028 -401.6796875 155.6796875 C-399.17600049 155.69849426 -399.17600049 155.69849426 -396.6796875 154.6796875 C-386.37524383 153.72980296 -378.37910551 154.6021961 -369.6796875 160.6796875 C-367.19211756 162.79035291 -365.40616443 164.91846777 -363.6796875 167.6796875 C-363.26976562 168.31261719 -362.85984375 168.94554687 -362.4375 169.59765625 C-358.32878351 177.14919381 -358.17549742 186.46007859 -360.52734375 194.62109375 C-363.99521533 202.32094422 -369.67335808 207.50879208 -377.2421875 211.1171875 C-385.1294785 213.87531994 -393.42417392 214.19103406 -401.3203125 211.38671875 C-408.05960606 208.02476523 -413.10498486 204.37577905 -416.6796875 197.6796875 C-417.01484375 197.06480469 -417.35 196.44992187 -417.6953125 195.81640625 C-420.43077566 189.81082122 -421.02907052 181.81779542 -418.9765625 175.5234375 C-418.87859375 174.915 -418.780625 174.3065625 -418.6796875 173.6796875 C-419.85164923 171.93592966 -419.85164923 171.93592966 -421.6796875 170.4296875 C-424.22050932 168.06821781 -426.57401601 165.71131636 -428.8046875 163.0546875 C-434.07087516 156.92896116 -439.93278035 151.34881696 -445.6796875 145.6796875 C-448.74154356 148.67326889 -451.61250093 151.67453353 -454.2421875 155.0546875 C-454.80035156 155.76367188 -455.35851562 156.47265625 -455.93359375 157.203125 C-457.63610882 159.61787792 -459.08537808 162.10850318 -460.52612305 164.68554688 C-461.82891712 166.93765736 -463.21624535 169.1212284 -464.625 171.30859375 C-465.14449219 172.11619141 -465.66398437 172.92378906 -466.19921875 173.75585938 C-467.27361298 175.41973267 -468.3517716 177.08118099 -469.43359375 178.74023438 C-472.13918188 182.96054703 -474.39200376 186.77536115 -475.6796875 191.6796875 C-474.7721875 191.3496875 -473.8646875 191.0196875 -472.9296875 190.6796875 C-465.85807419 188.71853158 -458.36583248 188.40281447 -451.6796875 191.6796875 C-447.28088446 194.54569529 -444.94994297 197.57342874 -443.6796875 202.6796875 C-442.83935346 209.25198422 -443.12193925 214.94757867 -446.21875 220.86328125 C-448.32999315 223.4882226 -451.09183463 225.52314344 -453.6796875 227.6796875 C-453.6796875 238.2396875 -453.6796875 248.7996875 -453.6796875 259.6796875 C-430.2496875 259.6796875 -406.8196875 259.6796875 -382.6796875 259.6796875 C-382.6796875 267.5996875 -382.6796875 275.5196875 -382.6796875 283.6796875 C-406.1096875 283.6796875 -429.5396875 283.6796875 -453.6796875 283.6796875 C-453.6796875 294.5696875 -453.6796875 305.4596875 -453.6796875 316.6796875 C-451.3696875 317.9996875 -449.0596875 319.3196875 -446.6796875 320.6796875 C-442.35113173 325.45303221 -442.05927336 331.59941607 -442.30078125 337.77734375 C-442.97165844 342.9161247 -444.53134226 346.72664638 -448.3984375 350.2421875 C-454.48747457 354.7831643 -460.1819913 355.47553235 -467.6796875 354.6796875 C-470.3538307 353.62157328 -472.28281335 352.32753848 -474.6796875 350.6796875 C-475.6696875 350.3496875 -476.6596875 350.0196875 -477.6796875 349.6796875 C-478.7421875 347.9921875 -478.7421875 347.9921875 -479.6796875 345.6796875 C-480.0509375 344.8134375 -480.4221875 343.9471875 -480.8046875 343.0546875 C-482.34765243 337.10325133 -482.2950172 331.76497147 -480.5546875 325.8671875 C-477.76240152 321.12030133 -474.25433568 318.72945295 -469.6796875 315.6796875 C-469.41241736 313.19627847 -469.33102416 310.96496682 -469.38671875 308.484375 C-469.39308601 307.42320969 -469.39308601 307.42320969 -469.39958191 306.34060669 C-469.41639203 304.07824845 -469.45404622 301.81677702 -469.4921875 299.5546875 C-469.50723143 298.02214827 -469.52092034 296.4895951 -469.53320312 294.95703125 C-469.56375349 291.19729915 -469.62246394 287.43948727 -469.6796875 283.6796875 C-479.9096875 283.6796875 -490.1396875 283.6796875 -500.6796875 283.6796875 C-509.91444688 302.14920625 -497.12996628 343.11583923 -491.34570312 361.51025391 C-490.7182285 363.5541467 -490.17850123 365.60109996 -489.6796875 367.6796875 C-489.0196875 367.6796875 -488.3596875 367.6796875 -487.6796875 367.6796875 C-488.0096875 368.6696875 -488.3396875 369.6596875 -488.6796875 370.6796875 C-488.0196875 370.6796875 -487.3596875 370.6796875 -486.6796875 370.6796875 C-486.5765625 371.32421875 -486.4734375 371.96875 -486.3671875 372.6328125 C-482.19132364 391.13948188 -472.5407454 408.32031679 -461.6796875 423.6796875 C-457.74153732 422.09516119 -455.13614645 419.36464429 -452.2421875 416.3671875 C-451.77748047 415.89345703 -451.31277344 415.41972656 -450.83398438 414.93164062 C-449.44645992 413.51702364 -448.06305243 412.09837238 -446.6796875 410.6796875 C-445.01422988 409.01181267 -443.3477648 407.34494234 -441.6796875 405.6796875 C-440.8546875 404.8340625 -440.0296875 403.9884375 -439.1796875 403.1171875 C-436.6796875 400.6796875 -436.6796875 400.6796875 -434.1171875 398.6796875 C-431.53491697 396.56090143 -429.73078664 394.30765828 -427.6796875 391.6796875 C-426.0342497 389.99205899 -424.36680173 388.3256526 -422.6796875 386.6796875 C-420.00789224 384.07002702 -417.75398529 381.79113419 -415.6796875 378.6796875 C-416.032043 376.83902872 -416.032043 376.83902872 -416.6796875 374.6796875 C-417.38968915 364.78622183 -417.30821399 355.89102616 -411.171875 347.65625 C-406.09365317 342.05839617 -400.62438417 339.13867526 -393.12109375 338.265625 C-383.68943173 337.90469534 -376.75649741 339.16161569 -369.62109375 345.51171875 C-362.25629179 353.27461812 -361.08377514 360.41456952 -361.3359375 370.984375 C-362.06775567 378.85142034 -364.7815186 384.93154715 -370.73046875 390.20703125 C-376.4244492 394.50889624 -380.43069307 395.88829253 -387.66943359 395.23339844 C-393.66556333 394.74582157 -397.91345174 394.59659709 -402.71484375 398.60546875 C-405.77538445 401.54550336 -408.5496631 404.70159468 -411.24804688 407.97412109 C-413.24987712 410.35897548 -415.44884891 412.51001706 -417.6796875 414.6796875 C-418.411875 415.411875 -419.1440625 416.1440625 -419.8984375 416.8984375 C-428.82552083 425.82552083 -437.75260417 434.75260417 -446.6796875 443.6796875 C-445.78928213 444.91279185 -444.89203046 446.14095314 -443.9921875 447.3671875 C-443.49332031 448.05167969 -442.99445313 448.73617188 -442.48046875 449.44140625 C-440.37924297 452.05312507 -438.07629655 454.33641545 -435.6796875 456.6796875 C-434.79410156 457.576875 -433.90851563 458.4740625 -432.99609375 459.3984375 C-427.22927141 465.28962528 -427.22927141 465.28962528 -421.0546875 470.7421875 C-418.6796875 472.6796875 -418.6796875 472.6796875 -417.6796875 474.6796875 C-416.6896875 474.6796875 -415.6996875 474.6796875 -414.6796875 474.6796875 C-414.463125 475.24558594 -414.2465625 475.81148437 -414.0234375 476.39453125 C-408.29930996 486.12887605 -393.31749542 492.8276329 -383.83398438 498.40869141 C-381.86208704 499.57207508 -379.90265866 500.75377324 -377.9453125 501.94140625 C-366.42158304 508.84694556 -354.15308445 513.25551795 -341.4921875 517.5546875 C-340.12791626 518.02080444 -340.12791626 518.02080444 -338.73608398 518.49633789 C-337.44939819 518.92354126 -337.44939819 518.92354126 -336.13671875 519.359375 C-334.9916687 519.74198486 -334.9916687 519.74198486 -333.82348633 520.13232422 C-331.4025053 520.8446126 -331.4025053 520.8446126 -327.6796875 520.6796875 C-327.3496875 521.3396875 -327.0196875 521.9996875 -326.6796875 522.6796875 C-325.6896875 522.3496875 -324.6996875 522.0196875 -323.6796875 521.6796875 C-323.3496875 522.3396875 -323.0196875 522.9996875 -322.6796875 523.6796875 C-321.6896875 523.3496875 -320.6996875 523.0196875 -319.6796875 522.6796875 C-319.6796875 523.3396875 -319.6796875 523.9996875 -319.6796875 524.6796875 C-315.67915798 525.39946887 -311.67729126 526.11124405 -307.67407227 526.81591797 C-306.31496651 527.05628207 -304.95623217 527.29875695 -303.59790039 527.54345703 C-301.63529016 527.89662597 -299.67116675 528.24135232 -297.70703125 528.5859375 C-296.52874756 528.79541016 -295.35046387 529.00488281 -294.13647461 529.22070312 C-290.10435852 529.83324715 -290.10435852 529.83324715 -283.6796875 529.6796875 C-283.6796875 497.9996875 -283.6796875 466.3196875 -283.6796875 433.6796875 C-297.5396875 433.6796875 -311.3996875 433.6796875 -325.6796875 433.6796875 C-326.9996875 435.6596875 -328.3196875 437.6396875 -329.6796875 439.6796875 C-335.04408163 444.01685722 -339.7645141 444.30123787 -346.58203125 444.05859375 C-352.44839465 443.3410184 -355.29598832 441.34722241 -359.1171875 436.7421875 C-361.99528777 430.97352766 -361.80232903 423.51261155 -360.01953125 417.42578125 C-358.22255597 413.82405157 -355.53532343 411.13681903 -351.93359375 409.33984375 C-345.78257233 407.53824476 -338.33276199 407.3552125 -332.5546875 410.3671875 C-329.6796875 412.6796875 -329.6796875 412.6796875 -328.60620117 415.29370117 C-326.97126447 417.82251963 -326.97126447 417.82251963 -324.75357056 418.11758423 C-322.14890061 418.2606595 -319.58814314 418.24071287 -316.98046875 418.16796875 C-316.03028366 418.16089401 -315.08009857 418.15381927 -314.10112 418.14653015 C-311.06401074 418.1185242 -308.02874015 418.05577394 -304.9921875 417.9921875 C-302.9342714 417.96711266 -300.87632643 417.94429808 -298.81835938 417.92382812 C-293.77085604 417.87292551 -288.72733108 417.77508606 -283.6796875 417.6796875 C-283.6796875 405.1396875 -283.6796875 392.5996875 -283.6796875 379.6796875 C-275.4296875 379.6796875 -267.1796875 379.6796875 -258.6796875 379.6796875 C-258.6796875 392.2196875 -258.6796875 404.7596875 -258.6796875 417.6796875 C-252.9665625 417.7828125 -247.2534375 417.8859375 -241.3671875 417.9921875 C-239.56725342 418.03770752 -237.76731934 418.08322754 -235.9128418 418.13012695 C-234.48488225 418.144731 -233.0569019 418.15747187 -231.62890625 418.16796875 C-230.88854126 418.19354858 -230.14817627 418.21912842 -229.38537598 418.2454834 C-226.9876147 418.30440632 -226.9876147 418.30440632 -223.6796875 417.6796875 C-221.77889034 415.36867329 -221.77889034 415.36867329 -220.6796875 412.6796875 C-215.31225311 408.36240332 -210.581859 408.05859988 -203.77734375 408.30078125 C-197.91098035 409.0183566 -195.06338668 411.01215259 -191.2421875 415.6171875 C-188.36408723 421.38584734 -188.55704597 428.84676345 -190.33984375 434.93359375 C-192.13681903 438.53532343 -194.82405157 441.22255597 -198.42578125 443.01953125 C-204.52864525 444.80702521 -211.98902073 445.01203888 -217.7421875 442.0546875 C-220.6796875 439.6796875 -220.6796875 439.6796875 -224.6796875 433.6796875 C-235.8996875 433.6796875 -247.1196875 433.6796875 -258.6796875 433.6796875 C-258.6796875 465.3596875 -258.6796875 497.0396875 -258.6796875 529.6796875 C-250.51045785 529.05128522 -242.88541215 528.38138936 -234.9296875 526.8046875 C-234.06214844 526.64355469 -233.19460938 526.48242188 -232.30078125 526.31640625 C-227.3437494 525.35769994 -222.63370723 524.10399366 -217.86865234 522.43847656 C-215.70820387 521.6895725 -213.53757553 521.01269087 -211.34765625 520.35546875 C-181.6436003 511.3601372 -150.54873686 498.11642398 -128.4921875 475.4296875 C-126.05667141 473.04829399 -123.61085846 471.0182658 -120.9296875 468.9296875 C-112.17538383 461.99109126 -104.06276331 453.88459588 -97.6796875 444.6796875 C-97.34615024 441.57591187 -97.34615024 441.57591187 -99.5859375 439.55078125 C-100.441875 438.74769531 -101.2978125 437.94460938 -102.1796875 437.1171875 C-105.63875626 433.77001548 -108.79746485 430.42450567 -111.7421875 426.6171875 C-115.03748276 422.36519361 -118.64102094 418.66849074 -122.5 414.9296875 C-125.39405696 411.94227386 -127.83524001 408.69860424 -130.26953125 405.33203125 C-130.73488281 404.78675781 -131.20023438 404.24148438 -131.6796875 403.6796875 C-132.3396875 403.6796875 -132.9996875 403.6796875 -133.6796875 403.6796875 C-133.9065625 403.1228125 -134.1334375 402.5659375 -134.3671875 401.9921875 C-136.1539448 398.8440913 -137.78202902 396.88442765 -140.6796875 394.6796875 C-143.95502716 394.84266687 -143.95502716 394.84266687 -146.2421875 395.33203125 C-154.32121188 396.484328 -163.00365431 395.5697755 -169.6796875 390.6796875 C-175.79822566 385.80063221 -180.17854158 380.48984529 -181.6796875 372.6796875 C-182.02056855 364.49854226 -181.76546721 355.46072711 -176.6796875 348.6796875 C-168.19725216 340.42650717 -161.50862466 338.18650435 -149.98925781 338.17773438 C-140.50436049 338.41730698 -134.1985361 341.77227937 -127.6171875 348.5546875 C-121.29658444 356.61421245 -122.47218883 365.96183314 -122.6796875 375.6796875 C-122.6796875 379.61137855 -121.28549135 380.84395978 -118.6796875 383.6796875 C-118.0196875 383.6796875 -117.3596875 383.6796875 -116.6796875 383.6796875 C-116.4528125 384.2159375 -116.2259375 384.7521875 -115.9921875 385.3046875 C-113.71814269 389.41962573 -110.60878826 392.75058674 -107.3046875 396.0546875 C-103.33264063 400.02673437 -99.70460928 404.29018127 -96.07421875 408.57421875 C-91.65691726 413.7864074 -87.10804303 418.49209895 -81.6796875 422.6796875 C-81.6796875 422.0196875 -81.6796875 421.3596875 -81.6796875 420.6796875 C-81.0196875 420.6796875 -80.3596875 420.6796875 -79.6796875 420.6796875 C-79.3496875 419.0296875 -79.0196875 417.3796875 -78.6796875 415.6796875 C-77.6896875 415.3496875 -76.6996875 415.0196875 -75.6796875 414.6796875 C-74.09761027 412.24435514 -72.68289188 409.85157195 -71.3046875 407.3046875 C-70.93085937 406.63824219 -70.55703125 405.97179687 -70.171875 405.28515625 C-64.77448291 395.50700414 -60.67578104 385.40099994 -57.1796875 374.8046875 C-56.78950439 373.62213379 -56.39932129 372.43958008 -55.99731445 371.22119141 C-48.05833724 346.72519221 -42.35595787 320.40486218 -42.6171875 294.5546875 C-42.648125 290.1615625 -42.648125 290.1615625 -42.6796875 285.6796875 C-53.2396875 285.6796875 -63.7996875 285.6796875 -74.6796875 285.6796875 C-74.8446875 290.6915625 -75.0096875 295.7034375 -75.1796875 300.8671875 C-75.25251953 302.44008545 -75.32535156 304.0129834 -75.40039062 305.63354492 C-75.831052 312.64437413 -75.831052 312.64437413 -72.95117188 318.66064453 C-70.86243407 319.99380817 -70.86243407 319.99380817 -68.65625 320.80004883 C-65.61693683 322.1526483 -64.56860715 324.26294832 -63.3046875 327.2421875 C-61.64472775 333.71603053 -61.55157777 340.93709792 -64.1171875 347.1796875 C-66.86666166 351.70147079 -70.70470789 354.07557075 -75.6796875 355.6796875 C-82.29986452 356.66270984 -88.22380446 356.31483252 -94.0625 352.88671875 C-97.65865334 350.20263329 -99.96657927 346.77372581 -101.6796875 342.6796875 C-102.47863302 336.17664258 -102.19974429 330.33979598 -99.140625 324.49609375 C-97.02938185 321.8711524 -94.26754037 319.83623156 -91.6796875 317.6796875 C-92.0096875 307.1196875 -92.3396875 296.5596875 -92.6796875 285.6796875 C-115.7796875 285.6796875 -138.8796875 285.6796875 -162.6796875 285.6796875 C-163.0096875 277.4296875 -163.3396875 269.1796875 -163.6796875 260.6796875 C-140.2496875 260.6796875 -116.8196875 260.6796875 -92.6796875 260.6796875 C-92.6796875 250.1196875 -92.6796875 239.5596875 -92.6796875 228.6796875 C-94.6596875 227.3596875 -96.6396875 226.0396875 -98.6796875 224.6796875 C-102.33340527 219.75991404 -104.57188894 214.14551938 -104.15625 207.9765625 C-102.86882871 201.771614 -100.25391697 196.3206766 -94.9921875 192.6171875 C-89.65396844 189.79756427 -84.09502155 188.92606919 -78.18359375 190.23046875 C-68.42468844 193.35524139 -68.42468844 193.35524139 -66.5546875 196.6796875 C-66.1215625 197.6696875 -66.1215625 197.6696875 -65.6796875 198.6796875 C-65.0196875 199.3396875 -64.3596875 199.9996875 -63.6796875 200.6796875 C-64.26752219 195.58174181 -66.64797405 191.5536134 -69.0546875 187.1171875 C-69.45429687 186.36244141 -69.85390625 185.60769531 -70.265625 184.83007812 C-73.06343375 179.48037777 -73.06343375 179.48037777 -76.6796875 174.6796875 C-77.3396875 174.6796875 -77.9996875 174.6796875 -78.6796875 174.6796875 C-79.0096875 173.0296875 -79.3396875 171.3796875 -79.6796875 169.6796875 C-80.3396875 169.6796875 -80.9996875 169.6796875 -81.6796875 169.6796875 C-82.09541016 168.83083984 -82.09541016 168.83083984 -82.51953125 167.96484375 C-86.90161283 159.33347095 -92.44870379 152.0549064 -98.6796875 144.6796875 C-100.01806265 143.01706682 -101.3529536 141.35161235 -102.6796875 139.6796875 C-104.6596875 140.6696875 -104.6596875 140.6696875 -106.6796875 141.6796875 C-106.6796875 142.3396875 -106.6796875 142.9996875 -106.6796875 143.6796875 C-107.56914063 144.06253906 -107.56914063 144.06253906 -108.4765625 144.453125 C-110.9064324 145.80592491 -112.17205016 147.16310026 -113.9296875 149.3046875 C-115.84759312 151.6320806 -117.65995782 153.66324052 -119.98046875 155.59765625 C-122.27665112 157.52105599 -124.06276033 159.15295729 -125.6796875 161.6796875 C-125.74654181 164.64356204 -125.18798109 167.02373615 -124.421875 169.8828125 C-122.57929765 176.82641976 -123.1151072 183.04752566 -126.359375 189.4453125 C-130.03146685 195.65962178 -133.75556364 201.47003685 -140.7578125 204.08984375 C-144.76106536 204.89798704 -148.66448012 205.10619659 -152.7421875 205.1796875 C-153.49798096 205.19845947 -154.25377441 205.21723145 -155.0324707 205.23657227 C-161.69138869 205.16053242 -166.78582839 203.157164 -171.8515625 198.8203125 C-173.52647226 196.81373744 -175.13638264 194.78952199 -176.6796875 192.6796875 C-177.11667969 192.10734375 -177.55367187 191.535 -178.00390625 190.9453125 C-182.15167191 184.3671017 -181.43419026 176.12662973 -180.6796875 168.6796875 C-179.77333059 165.33634033 -178.5042197 162.611522 -176.6796875 159.6796875 C-176.0609375 158.6071875 -175.4421875 157.5346875 -174.8046875 156.4296875 C-170.85051666 151.31252523 -166.93404958 148.29418562 -160.6796875 146.6796875 C-157.71460698 146.45659186 -154.77587369 146.48922069 -151.8046875 146.5546875 C-151.0209375 146.56371094 -150.2371875 146.57273437 -149.4296875 146.58203125 C-147.51288695 146.60540687 -145.59624559 146.64127097 -143.6796875 146.6796875 C-143.6796875 146.0196875 -143.6796875 145.3596875 -143.6796875 144.6796875 C-143.0196875 144.6796875 -142.3596875 144.6796875 -141.6796875 144.6796875 C-140.11104668 143.1288968 -140.11104668 143.1288968 -138.4921875 141.1171875 C-134.22016643 136.09023547 -129.62186482 131.49520108 -124.8046875 126.9921875 C-122.65785784 124.6559317 -122.27091626 123.66727966 -121.6796875 120.6796875 C-122.19917969 120.30457031 -122.71867187 119.92945313 -123.25390625 119.54296875 C-127.40964607 116.49337779 -131.03128405 113.32809095 -134.6796875 109.6796875 C-145.53813641 100.24216843 -157.82143187 92.11765868 -170.6796875 85.6796875 C-171.77152344 85.12796875 -172.86335938 84.57625 -173.98828125 84.0078125 C-188.62594313 76.80037471 -204.12003346 71.8950614 -219.859375 67.72265625 C-223.6796875 66.6796875 -223.6796875 66.6796875 -226.47265625 65.67578125 C-231.27309008 64.1847817 -236.16839074 63.40305266 -241.1171875 62.5546875 C-242.12845703 62.37292969 -243.13972656 62.19117188 -244.18164062 62.00390625 C-245.16970703 61.83246094 -246.15777344 61.66101563 -247.17578125 61.484375 C-248.50887329 61.25210205 -248.50887329 61.25210205 -249.86889648 61.01513672 C-253.15757157 60.62265521 -256.37081946 60.62695857 -259.6796875 60.6796875 C-259.70488961 66.68554396 -259.72277786 72.69136794 -259.73461914 78.69726562 C-259.73956879 80.72949766 -259.74633019 82.76172629 -259.75512695 84.79394531 C-259.8154725 99.1206876 -259.45942079 113.37373531 -258.6796875 127.6796875 C-252.89489862 127.66030479 -247.11163901 127.60870389 -241.32739258 127.52709961 C-239.35937837 127.50388921 -237.39123941 127.48951677 -235.4230957 127.48413086 C-232.59507229 127.47486333 -229.76901917 127.43392292 -226.94140625 127.38671875 C-225.61939461 127.39261772 -225.61939461 127.39261772 -224.27067566 127.39863586 C-221.9655346 127.34345822 -219.91271983 127.25541561 -217.6796875 126.6796875 C-215.6610323 124.38406864 -215.6610323 124.38406864 -214.6796875 121.6796875 C-209.20608785 116.75344781 -204.92346579 116.32915821 -197.76171875 116.3984375 C-191.96372553 116.92753194 -188.21045534 119.07041875 -184.2421875 123.2421875 C-180.77321307 128.65378761 -181.1355239 134.45729499 -181.6796875 140.6796875 C-182.85556431 145.33076713 -184.89538082 148.60914213 -188.9921875 151.1796875 C-195.00018074 153.73507215 -202.30710816 153.49461412 -208.6796875 152.6796875 C-211.0078125 151.15234375 -211.0078125 151.15234375 -212.6796875 149.6796875 C-213.3396875 149.6796875 -213.9996875 149.6796875 -214.6796875 149.6796875 C-215.14375 148.720625 -215.14375 148.720625 -215.6171875 147.7421875 C-216.5142038 145.74357929 -216.5142038 145.74357929 -217.6796875 144.6796875 C-220.70946554 144.59097477 -223.71635772 144.564494 -226.74609375 144.58203125 C-227.65471664 144.5834462 -228.56333954 144.58486115 -229.49949646 144.58631897 C-232.41375971 144.59193557 -235.32794731 144.60449085 -238.2421875 144.6171875 C-240.21288952 144.62220036 -242.18359274 144.62676364 -244.15429688 144.63085938 C-248.99614664 144.64106133 -253.83783197 144.66063341 -258.6796875 144.6796875 C-258.6796875 157.2196875 -258.6796875 169.7596875 -258.6796875 182.6796875 C-267.2596875 182.6796875 -275.8396875 182.6796875 -284.6796875 182.6796875 C-284.6171875 169.8671875 -284.6171875 169.8671875 -284.58959961 165.89916992 C-284.57293293 158.7663676 -284.87495647 151.76803422 -285.6796875 144.6796875 C-289.49217095 144.65032248 -293.30462476 144.63276715 -297.1171875 144.6171875 C-298.18646484 144.60880859 -299.25574219 144.60042969 -300.35742188 144.59179688 C-306.54301236 144.5728807 -312.57578985 144.61733912 -318.6796875 145.6796875 C-321.41947953 148.50076251 -321.41947953 148.50076251 -323.6796875 151.6796875 C-329.25690497 155.8626006 -336.01733331 155.40331398 -342.6796875 154.6796875 C-347.04034909 153.46115465 -349.90573902 150.79486099 -352.6171875 147.2421875 C-355.73207837 141.70575356 -355.62438766 135.83175925 -354.6796875 129.6796875 C-352.89299059 124.69740053 -349.7519721 120.66887348 -344.890625 118.3125 C-338.9406145 116.60949346 -332.62781922 116.39065953 -326.91015625 118.890625 C-322.75423808 121.53591056 -320.93282184 123.17341882 -318.6796875 127.6796875 C-307.7896875 127.6796875 -296.8996875 127.6796875 -285.6796875 127.6796875 C-285.6796875 105.5696875 -285.6796875 83.4596875 -285.6796875 60.6796875 C-289.89284298 60.6796875 -293.39454664 61.04794462 -297.51171875 61.7734375 Z M-63.6796875 200.6796875 C-63.64488281 201.76507813 -63.61007812 202.85046875 -63.57421875 203.96875 C-63.54606362 205.41404692 -63.51876531 206.85936071 -63.4921875 208.3046875 C-63.45448242 209.37396484 -63.45448242 209.37396484 -63.41601562 210.46484375 C-63.33992026 215.99444038 -64.3011058 220.13163942 -68.21484375 224.32421875 C-72.45746528 227.56857639 -72.45746528 227.56857639 -74.6796875 228.6796875 C-74.6796875 239.2396875 -74.6796875 249.7996875 -74.6796875 260.6796875 C-65.4396875 260.6796875 -56.1996875 260.6796875 -46.6796875 260.6796875 C-47.36652415 253.81132103 -48.19254604 247.50718712 -49.8046875 240.8671875 C-50.01915527 239.97427002 -50.23362305 239.08135254 -50.45458984 238.16137695 C-53.62720114 225.38497433 -58.00995684 212.97664491 -62.6796875 200.6796875 C-63.0096875 200.6796875 -63.3396875 200.6796875 -63.6796875 200.6796875 Z M-484.6796875 211.6796875 C-485.93633728 214.58569011 -486.6796875 216.47573334 -486.6796875 219.6796875 C-487.6696875 220.1746875 -487.6696875 220.1746875 -488.6796875 220.6796875 C-488.3496875 221.3396875 -488.0196875 221.9996875 -487.6796875 222.6796875 C-488.6696875 223.1746875 -488.6696875 223.1746875 -489.6796875 223.6796875 C-492.40641172 230.46967924 -493.76378102 237.93381882 -495.3671875 245.0546875 C-495.70459961 246.51068359 -495.70459961 246.51068359 -496.04882812 247.99609375 C-496.26087891 248.93066406 -496.47292969 249.86523438 -496.69140625 250.828125 C-496.88178467 251.66520996 -497.07216309 252.50229492 -497.26831055 253.36474609 C-497.79633016 255.94420252 -497.79633016 255.94420252 -497.6796875 259.6796875 C-488.4396875 259.6796875 -479.1996875 259.6796875 -469.6796875 259.6796875 C-469.5184951 255.35307891 -469.37940948 251.03694262 -469.29516602 246.7097168 C-469.26005228 245.2399562 -469.21234588 243.77043862 -469.15161133 242.30151367 C-468.46805006 234.0242422 -468.46805006 234.0242422 -471.19873047 226.57568359 C-473.56837501 224.83393034 -475.68720417 223.6796875 -478.6796875 223.6796875 C-480.76348259 219.83268118 -482.17655374 215.77914321 -483.6796875 211.6796875 C-484.0096875 211.6796875 -484.3396875 211.6796875 -484.6796875 211.6796875 Z " fill="#000000" transform="translate(785.6796875,183.3203125)"/>
<path d="M0 0 C1.52259223 1.32871376 3.02335709 2.68290112 4.5 4.0625 C5.27730469 4.76117188 6.05460938 5.45984375 6.85546875 6.1796875 C20.44648698 18.97391237 29.0516859 37.11831608 29.78125 55.76171875 C30.28090732 77.72251964 25.88851118 97.59152701 10.5 114.0625 C9.80132813 114.83980469 9.10265625 115.61710938 8.3828125 116.41796875 C-4.41141237 130.00898698 -22.55581608 138.6141859 -41.19921875 139.34375 C-63.16001964 139.84340732 -83.02902701 135.45101118 -99.5 120.0625 C-100.66595703 119.01449219 -100.66595703 119.01449219 -101.85546875 117.9453125 C-115.44648698 105.15108763 -124.0516859 87.00668392 -124.78125 68.36328125 C-125.28090732 46.40248036 -120.88851118 26.53347299 -105.5 10.0625 C-104.80132812 9.28519531 -104.10265625 8.50789063 -103.3828125 7.70703125 C-77.05611722 -20.2592269 -30.26300807 -23.53266569 0 0 Z " fill="#000000" transform="translate(564.5,401.9375)"/>
</svg>
